# xmcd
#
# Track frame offsets: 
#        150
#        20400
#        42388
#        75400
#        90063
#        124583
#        137590
#
# Disc length: 2053 seconds
#
# Revision: 2
# Processed by: cddbd v1.5.1PL0 Copyright (c) Steve Scherf et al.
# Submitted via: ExactAudioCopy v0.95a5
#
DISCID=44080307
DTITLE=Nationalteatern - Barn av vår tid
DYEAR=1978
DGENRE=Rock
TTITLE0=Popens Mussolinis
TTITLE1=Kolla kolla
TTITLE2=Spisa
TTITLE3=Ingelas sång
TTITLE4=Barn av vår tid
TTITLE5=Men bara om min älskade vänter...
TTITLE6=Ge mej mitt liv nu
EXTD=
EXTT0=
EXTT1=
EXTT2=
EXTT3=
EXTT4=
EXTT5=
EXTT6=
PLAYORDER=
